# xmcd
# 
# Track frame offsets:
#     150
#     12470
#     19141
#     27238
#     40880
#     50856
#     63761
#     72235
#     79809
#     90234
# 
# Disc length: 1464
# 
# Revision: 0
# Processed by: cddbd v1.5.2PL0 Copyright (c) Steve Scherf et al.
# Submitted via: fre:ac v1.0.27
# 
DISCID=7a05b60a
DTITLE=EvilMrSod - Still Alive And Well
DYEAR=2015
DGENRE=Folk/Rock
TTITLE0=Stop Making Sense
TTITLE1=Exit.Stage.Left
TTITLE2=Fandango!
TTITLE3=Live - Evil
TTITLE4=Wheels Of Fire
TTITLE5=Smell Of Female
TTITLE6=Decade Of Aggression
TTITLE7=It's Alive!
TTITLE8=Night Of The Living Dead Boys
TTITLE9=Made In Japan
EXTD=
EXTT0=
EXTT1=
EXTT2=
EXTT3=
EXTT4=
EXTT5=
EXTT6=
EXTT7=
EXTT8=
EXTT9=
PLAYORDER=
